<?xml version="1.0" encoding="utf-8"?>
<!-- Generator: Adobe Illustrator 22.1.0, SVG Export Plug-In . SVG Version: 6.00 Build 0)  -->
<!DOCTYPE svg PUBLIC "-//W3C//DTD SVG 1.1//EN" "http://www.w3.org/Graphics/SVG/1.1/DTD/svg11.dtd">
<svg version="1.1"
	 id="svg2" inkscape:version="0.48.5 r10040" sodipodi:docname="Office 365 2013.pdf" xmlns:cc="http://creativecommons.org/ns#" xmlns:dc="http://purl.org/dc/elements/1.1/" xmlns:inkscape="http://www.inkscape.org/namespaces/inkscape" xmlns:rdf="http://www.w3.org/1999/02/22-rdf-syntax-ns#" xmlns:sodipodi="http://sodipodi.sourceforge.net/DTD/sodipodi-0.dtd" xmlns:svg="http://www.w3.org/2000/svg"
	 xmlns="http://www.w3.org/2000/svg" xmlns:xlink="http://www.w3.org/1999/xlink" x="0px" y="0px" viewBox="0 0 211.6 211.7"
	 style="enable-background:new 0 0 211.6 211.7;" xml:space="preserve">
<style type="text/css">
	.st0{fill:#DC3E15;}
</style>
<sodipodi:namedview  bordercolor="#666666" borderopacity="1" gridtolerance="10" guidetolerance="10" id="namedview4" inkscape:current-layer="g10" inkscape:cx="522.3907" inkscape:cy="92.198984" inkscape:pageopacity="0" inkscape:pageshadow="2" inkscape:window-height="705" inkscape:window-maximized="1" inkscape:window-width="1366" inkscape:window-x="-8" inkscape:window-y="-8" inkscape:zoom="0.74860181" objecttolerance="10" pagecolor="#ffffff" showgrid="false">
	</sodipodi:namedview>
<g id="g10" transform="matrix(1.25,0,0,-1.25,-44.29975,283.3775)" inkscape:groupmode="layer" inkscape:label="Office 365 2013">
	<g id="g12" transform="matrix(1.0173979,0,0,1.0267549,-12.619977,-4.9244629)">
		<path id="path14" inkscape:connector-curvature="0" class="st0" d="M149.2,82.6c0.2,1.5,0.3,112.5,0.1,114.9
			c-19-4.5-38-9-57.1-13.5v-78.2c-9.8-3.8-19.6-7.6-29.4-11.4c-0.1,0-0.1,0.1-0.2,0.1c0,0-0.1,0.1-0.1,0.1c0,0.3-0.1,0.6-0.1,0.9
			c0,31.6,0,63.2,0,94.8c0.4,0.5,1,0.6,1.5,0.8c28,10.4,55.9,20.7,83.9,31.1c1,0.4,1.8,0.5,2.9,0.2c15.3-4.4,30.7-8.8,46.1-13.2
			c0.2-0.1,0.4-0.1,0.8-0.2V75.8c-4.4-1.2-8.8-2.4-13.2-3.6c-11.1-3-22.3-6.1-33.4-9.1c-1.1-0.3-2-0.3-3.1,0.1
			c-27.5,10.1-55,20.1-82.6,30.2c-0.5,0.2-1.1,0.4-1.5,0.9C92.3,90.4,120.8,86.5,149.2,82.6L149.2,82.6z"/>
		<path id="path16" inkscape:connector-curvature="0" class="st0" d="M357.3,153.8h-11.7v9.3h11.2c0.7,0.6,0.5,1.2,0.5,1.7
			c0,3.3,0,6.6,0,9.9c0,4,0.7,7.8,2.5,11.3c3.8,7.2,9.9,11.1,18.1,11.5c2.7,0.2,5.4,0,8-0.7c0.5-0.1,0.9-0.3,1.4-0.5v-9.6
			c-0.5-0.3-0.9,0.2-1.3,0.3c-3,1.2-6,1.5-9.2,0.8c-3-0.6-5.2-2.3-6.6-5c-0.9-1.7-1.4-3.5-1.6-5.4c-0.4-4.7-0.1-9.4-0.2-14.3h26.8
			c0.4,0.5,0.2,1,0.2,1.4c0,3.6,0,7.1,0,10.7c0.1,6.3,2.1,11.8,6.7,16.3c3.6,3.5,8,5.4,13,5.8c2.9,0.2,5.8,0.2,8.6-0.5
			c0.6-0.2,1.3-0.2,1.8-0.7v-9.7c-1.8,0.7-3.5,1.3-5.4,1.6c-1.9,0.2-3.7,0.1-5.5-0.3c-3-0.8-5.2-2.6-6.5-5.4c-0.9-2-1.4-4-1.5-6.2
			c-0.1-4.1-0.1-8.3-0.1-12.4c0-0.2,0.1-0.3,0.2-0.7h16v-9.3h-16.2V94.7h-11.1c-0.1,2.8,0,5.6,0,8.4c0,2.8,0,5.6,0,8.3v42.3h-27
			V94.7h-11.1c-0.1,2.1,0,4.3,0,6.4c0,2.2,0,4.4,0,6.6L357.3,153.8L357.3,153.8z"/>
		<path id="path18" inkscape:connector-curvature="0" class="st0" d="M246.4,141.4c0.1,9.3,1.5,18.1,5.6,26.4
			c6.3,12.8,16.6,20.4,30.5,23.3c8.3,1.7,16.7,1.7,24.9-0.8c13.4-4.1,22.4-12.9,27.4-25.7c3.2-8.3,4-16.9,3.5-25.7
			c-0.4-5.8-1.4-11.5-3.4-17c-5.9-15.9-17.3-25.5-34.3-28.3c-9.4-1.5-18.8-0.8-27.7,3.1c-11.3,4.9-18.7,13.3-23,24.6
			C247.4,127.8,246.4,134.7,246.4,141.4L246.4,141.4z M326.4,143c-0.1,1.3-0.1,3.3-0.3,5.2c-0.5,5.8-1.7,11.5-4.3,16.7
			c-3.5,7-8.8,12.2-16.3,15c-3.7,1.4-7.5,2-11.4,2c-13.1,0.3-23.2-5-29.9-16.2c-3.3-5.5-5-11.6-5.6-18c-0.7-8.2,0-16.2,3.1-23.9
			c3.4-8.3,8.9-14.7,17.4-18.3c5.3-2.3,11-2.8,16.7-2.3c12.6,1.1,21.5,7.3,26.7,18.6C325.5,128.4,326.3,135.4,326.4,143z"/>
		<path id="path20" inkscape:connector-curvature="0" class="st0" d="M728,189.5v-10c-0.5-0.3-0.8,0-1.2,0.2
			c-4,1.8-8.1,2.9-12.5,3.2c-7.7,0.5-14.3-1.8-19.6-7.4c-3.8-4-6.3-8.8-8-13.9c-2.1-6.5-2.9-13.2-2.9-20c0.8,0.1,0.9,0.8,1.1,1.3
			c2.5,4.3,5.8,7.7,10.4,9.7c2.6,1.2,5.4,1.9,8.3,2c4.1,0.3,8.2,0,12.1-1.2c8.1-2.6,13.5-8.1,16.3-15.9c3.1-8.6,2.9-17.4-0.5-25.9
			c-4.9-12.3-16-19.1-29.6-18.6c-9,0.4-16.1,4.2-21.3,11.4c-3.6,4.9-5.7,10.5-6.9,16.4c-1.7,8.2-1.8,16.4-1.1,24.7
			c0.6,7.8,2.3,15.3,5.4,22.5c2.9,6.7,6.9,12.6,12.8,17.1c6,4.6,12.9,6.9,20.5,7c4.4,0.1,8.7-0.3,13-1.4
			C725.6,190.5,726.8,190.1,728,189.5z M684.5,124.3c0.1-5,1.8-11,6.2-16c5.7-6.5,14.1-7.3,20.6-4.4c5.3,2.3,8.5,6.6,10.1,12
			c1.7,5.8,1.5,11.6-0.3,17.3c-1.7,5.1-4.9,9.1-10.2,11c-4,1.5-8.1,1.7-12.2,0.6C690.3,142.6,684.5,134.9,684.5,124.3z"/>
		<path id="path22" inkscape:connector-curvature="0" class="st0" d="M746.7,142.8c1.1,15.8,2.2,31.7,3.3,47.7h44.9v-9.6
			c0,0,0-0.1-0.1-0.1c0,0-0.1-0.1-0.2-0.1c-0.1,0-0.2-0.1-0.3-0.1c-11.4,0-22.9,0-34.6,0c-0.7-9.3-1.4-18.6-2-27.9
			c0.8-0.4,1.3-0.2,1.9-0.2c4.7,0.1,9.3,0.4,14-0.2c6-0.8,11.5-2.7,16.3-6.5c4.9-3.9,7.8-9,8.9-15c1.1-6.1,1-12.2-1.1-18.1
			c-3.2-8.8-9.5-14.5-18.2-17.7c-5.5-2-11.2-2.4-17-2.2c-4.3,0.1-8.6,0.6-12.8,1.8c-1.4,0.4-2.7,1-4,1.6c-0.5,0.3-0.9,0.5-0.9,1.2
			c0,3.5,0,7.1,0,10.7c0.6,0,1-0.3,1.4-0.5c4.9-2.9,10.1-4.8,15.9-5.3c4.8-0.4,9.6-0.1,14.1,2c6.9,3.1,10.9,8.5,11.7,16
			c0.3,2.9,0.2,5.8-0.6,8.6c-1.6,5.8-5.4,9.7-10.9,11.9c-3.3,1.4-6.8,2-10.3,2.1c-6.1,0.2-12.1,0.1-18.1-0.6
			C747.6,142.5,747.3,142.4,746.7,142.8L746.7,142.8z"/>
		<path id="path24" inkscape:connector-curvature="0" class="st0" d="M576.2,126.1h-48.8c-0.2-2.4,0.2-4.7,0.7-6.9
			c0.7-3.3,2-6.5,4.1-9.2c3.4-4.3,7.9-6.6,13.3-7.3c8.8-1.2,16.9,0.9,24.2,5.9c0.4,0.3,0.9,0.6,1.3,0.9c0,0,0.1,0,0.2,0
			c0.3-0.5,0.2-1,0.2-1.5c0-2.2-0.1-4.5,0-6.7c0.1-1.3-0.4-2-1.5-2.7c-3.6-2.2-7.4-3.6-11.5-4.5c-6.2-1.2-12.4-1.6-18.6-0.4
			c-10.3,2-17.2,8.1-21.1,17.6c-1.5,3.7-2.4,7.6-2.7,11.5c-0.6,6.8-0.3,13.5,2,20c3,8.4,8,15.1,16.2,19.1c8.1,3.9,16.5,4.2,24.9,1.1
			c7.3-2.7,11.9-8.1,14.6-15.2c1.6-4.1,2.3-8.3,2.5-12.7C576.3,132.1,576.2,129.2,576.2,126.1L576.2,126.1z M564.8,135.5
			c0,4.9-0.9,9.5-3.7,13.6c-1.6,2.2-3.6,4-6.2,5c-6.2,2.3-12.3,2-17.8-1.8c-5.8-4-8.5-9.9-9.6-16.7
			C539.9,135.5,552.2,135.5,564.8,135.5L564.8,135.5z"/>
		<path id="path26" inkscape:connector-curvature="0" class="st0" d="M614.2,139.8v8.9c0.7,0.3,1.4,0.2,2,0.2
			c3.7,0,7.4-0.1,11.1,0.3c3.1,0.3,6.2,0.9,9,2.2c5.8,2.6,8.8,7,9.3,13.3c0.2,2.4,0.1,4.9-0.5,7.2c-1.5,5.9-5.4,9.2-11.3,10.4
			c-8.3,1.7-16.1,0.1-23.2-4.4c-0.4-0.3-0.8-0.5-1.2-0.8c-0.3-0.2-0.7-0.5-1.3-0.9c0,2,0,3.7,0,5.4c0,1.7,0,3.4,0,5.2
			c3.3,2,6.8,3.4,10.5,4.2c6.9,1.6,13.9,2,20.8,0.2c6.9-1.8,12.4-5.6,15.6-12.1c2.1-4.3,2.4-8.9,1.9-13.5c-0.3-2.7-1-5.4-2.2-7.8
			c-2.3-4.9-6.2-8.2-11-10.5c-1.5-0.7-3-1.2-4.5-1.8c-0.4-0.1-0.8-0.1-1.1-0.7c2.3-0.4,4.6-0.8,6.7-1.6c7.4-2.7,13-7.4,14.9-15.1
			c2.5-10.2,0-19.4-8-26.7c-4.7-4.2-10.3-6.7-16.5-7.7c-7.9-1.3-15.8-1.1-23.5,1.1c-2.3,0.6-4.4,1.6-6.4,2.7c-0.6,0.3-1,0.7-1,1.5
			c0,3.4,0,6.9,0,10.3c0,0.1,0.1,0.2,0.2,0.4c0.5-0.4,1.1-0.7,1.6-1.1c8.9-6,18.7-7.7,29.1-5.3c2.8,0.7,5.4,2,7.6,3.8
			c3.7,3,5.7,6.9,6.1,11.6c0.2,2.5,0.1,5-0.6,7.4c-1.1,4-3.5,7.1-7,9.3c-3.2,1.9-6.7,2.9-10.3,3.5c-4.9,0.8-9.9,0.7-14.9,0.7
			C615.7,139.6,615,139.5,614.2,139.8L614.2,139.8z"/>
		<path id="path28" inkscape:connector-curvature="0" class="st0" d="M507.9,161.3v-10.9c-0.8,0-1.2,0.5-1.8,0.8
			c-5,3-10.4,4.5-16.3,4.1c-8.7-0.5-14.9-4.7-19.1-12c-1.9-3.3-2.9-6.9-3.3-10.6c-0.5-5.1-0.3-10.2,1.3-15.1
			c3.1-9.4,11.1-15.2,21.1-15.3c5.9-0.1,11.3,1.5,16.3,4.7c0.5,0.3,0.9,0.8,1.7,0.9V97.8c-0.2-0.4-0.7-0.6-1.2-0.8
			c-10.8-5.2-21.8-5.7-32.8-0.8c-7.9,3.5-13.1,9.8-15.8,17.8c-3.7,11.1-3.2,22.1,2.1,32.6c5.4,10.7,14.4,16.5,26.4,17.9
			c6.3,0.7,12.4,0.3,18.4-1.8C505.8,162.4,506.8,162,507.9,161.3z"/>
		<path id="path30" inkscape:connector-curvature="0" class="st0" d="M444.1,94.6h-10.7c-0.4,1.3-0.6,64.8-0.2,68.3
			c1.3,0.3,8.4,0.4,10.9,0.1C444.4,161.6,444.4,96.5,444.1,94.6z"/>
		<path id="path32" inkscape:connector-curvature="0" class="st0" d="M431.6,187.9c0.1,4,3.3,7.1,7.5,7c4.2-0.1,7.3-3.3,7.2-7.3
			c-0.1-4-3.4-7.1-7.5-7C434.5,180.6,431.5,183.7,431.6,187.9z"/>
	</g>
</g>
</svg>
